<svg width="10" height="10" viewBox="0 0 10 10" fill="none" xmlns="http://www.w3.org/2000/svg">
<path d="M9.14642 9.85353C9.34168 10.0488 9.65827 10.0488 9.85353 9.85353C10.0488 9.65827 10.0488 9.34168 9.85353 9.14642L9.14642 9.85353ZM7.70353 6.99642C7.50827 6.80116 7.19168 6.80116 6.99642 6.99642C6.80116 7.19168 6.80116 7.50827 6.99642 7.70353L7.70353 6.99642ZM8 4.5C8 6.433 6.433 8 4.5 8V9C6.98528 9 9 6.98528 9 4.5H8ZM4.5 8C2.567 8 1 6.433 1 4.5H0C0 6.98528 2.01472 9 4.5 9V8ZM1 4.5C1 2.567 2.567 1 4.5 1V0C2.01472 0 0 2.01472 0 4.5H1ZM4.5 1C6.433 1 8 2.567 8 4.5H9C9 2.01472 6.98528 0 4.5 0V1ZM9.85353 9.14642L7.70353 6.99642L6.99642 7.70353L9.14642 9.85353L9.85353 9.14642Z" fill="#9CA3AF"/>
</svg>
