<svg width="12" height="16" viewBox="0 0 12 16" fill="none" xmlns="http://www.w3.org/2000/svg">
<path d="M1.33337 14.1667C1.05723 14.1667 0.833374 14.3906 0.833374 14.6667C0.833374 14.9429 1.05723 15.1667 1.33337 15.1667V14.1667ZM10.6667 15.1667C10.9429 15.1667 11.1667 14.9429 11.1667 14.6667C11.1667 14.3906 10.9429 14.1667 10.6667 14.1667V15.1667ZM1.33337 0.833374C1.05723 0.833374 0.833374 1.05723 0.833374 1.33337C0.833374 1.60952 1.05723 1.83337 1.33337 1.83337V0.833374ZM10.6667 1.83337C10.9429 1.83337 11.1667 1.60952 11.1667 1.33337C11.1667 1.05723 10.9429 0.833374 10.6667 0.833374V1.83337ZM8.83337 14.6667C8.83337 14.9429 9.05723 15.1667 9.33337 15.1667C9.60952 15.1667 9.83337 14.9429 9.83337 14.6667H8.83337ZM9.33337 11.8854H9.83337V11.8853L9.33337 11.8854ZM8.94271 10.9427L8.58915 11.2963L8.58921 11.2963L8.94271 10.9427ZM3.05737 10.9427L3.41087 11.2963L3.41093 11.2963L3.05737 10.9427ZM2.66671 11.8854L2.16671 11.8853V11.8854H2.66671ZM2.16671 14.6667C2.16671 14.9429 2.39057 15.1667 2.66671 15.1667C2.94285 15.1667 3.16671 14.9429 3.16671 14.6667H2.16671ZM3.16671 1.33337C3.16671 1.05723 2.94285 0.833374 2.66671 0.833374C2.39057 0.833374 2.16671 1.05723 2.16671 1.33337H3.16671ZM2.66671 4.11471H2.16671V4.11481L2.66671 4.11471ZM3.05737 5.05737L3.41093 4.70382L3.41087 4.70377L3.05737 5.05737ZM8.94271 5.05737L8.58921 4.70377L8.58915 4.70382L8.94271 5.05737ZM9.33337 4.11471L9.83337 4.11481V4.11471H9.33337ZM9.83337 1.33337C9.83337 1.05723 9.60952 0.833374 9.33337 0.833374C9.05723 0.833374 8.83337 1.05723 8.83337 1.33337H9.83337ZM1.33337 15.1667H10.6667V14.1667H1.33337V15.1667ZM1.33337 1.83337H10.6667V0.833374H1.33337V1.83337ZM9.83337 14.6667V11.8854H8.83337V14.6667H9.83337ZM9.83337 11.8853C9.83327 11.3991 9.64005 10.9328 9.29621 10.5891L8.58921 11.2963C8.7455 11.4526 8.83333 11.6645 8.83337 11.8855L9.83337 11.8853ZM9.29626 10.5892L6.35359 7.64649L5.64649 8.35359L8.58915 11.2963L9.29626 10.5892ZM5.64649 7.64649L2.70382 10.5892L3.41093 11.2963L6.35359 8.35359L5.64649 7.64649ZM2.70387 10.5891C2.36003 10.9328 2.16681 11.3991 2.16671 11.8853L3.16671 11.8855C3.16675 11.6645 3.25458 11.4526 3.41087 11.2963L2.70387 10.5891ZM2.16671 11.8854V14.6667H3.16671V11.8854H2.16671ZM2.16671 1.33337V4.11471H3.16671V1.33337H2.16671ZM2.16671 4.11481C2.16681 4.601 2.36003 5.06724 2.70387 5.41098L3.41087 4.70377C3.25458 4.54752 3.16675 4.3356 3.16671 4.1146L2.16671 4.11481ZM2.70382 5.41093L5.64649 8.35359L6.35359 7.64649L3.41093 4.70382L2.70382 5.41093ZM6.35359 8.35359L9.29626 5.41093L8.58915 4.70382L5.64649 7.64649L6.35359 8.35359ZM9.29621 5.41098C9.64005 5.06724 9.83327 4.601 9.83337 4.11481L8.83337 4.1146C8.83333 4.3356 8.7455 4.54752 8.58921 4.70377L9.29621 5.41098ZM9.83337 4.11471V1.33337H8.83337V4.11471H9.83337Z" fill="#334155"/>
</svg>
